# xmcd
#
# Track frame offsets: 
#        182
#        16860
#        34665
#        55215
#        73812
#        93867
#        111230
#        126687
#        142877
#        160225
#
# Disc length: 2348 seconds
#
# Revision: 0
# Processed by: cddbd v1.5.1PL0 Copyright (c) Steve Scherf et al.
# Submitted via: ExactAudioCopy v0.90b3
#
DISCID=87092a0a
DTITLE=Karo - Heavy Birthday
DYEAR=1988
DGENRE=Hard Rock
TTITLE0=Wanna Be Loved
TTITLE1=One Of A Kind
TTITLE2=Still Hate To Loose
TTITLE3=Sister, Sister
TTITLE4=Ball Of Fire
TTITLE5=Call Of The Wild
TTITLE6=No-Man's Land
TTITLE7=Out On The Line
TTITLE8=Cold Shoulder
TTITLE9=Nobody's Fool
EXTD=
EXTT0=
EXTT1=
EXTT2=
EXTT3=
EXTT4=
EXTT5=
EXTT6=
EXTT7=
EXTT8=
EXTT9=
PLAYORDER=
